<svg width="64" height="64" viewBox="0 0 64 64" fill="none" xmlns="http://www.w3.org/2000/svg">
<g id="ph:arrow-circle-down-right-fill">
<path id="Vector" d="M32 6C26.8577 6 21.8309 7.52487 17.5552 10.3818C13.2795 13.2387 9.94702 17.2994 7.97914 22.0502C6.01127 26.8011 5.49638 32.0288 6.49959 37.0723C7.50281 42.1159 9.97907 46.7486 13.6152 50.3848C17.2514 54.0209 21.8842 56.4972 26.9277 57.5004C31.9712 58.5036 37.1989 57.9887 41.9498 56.0209C46.7007 54.053 50.7613 50.7205 53.6182 46.4448C56.4751 42.1691 58 37.1423 58 32C57.9927 25.1066 55.2511 18.4976 50.3767 13.6233C45.5024 8.74889 38.8934 6.00728 32 6ZM42 40C42 40.5304 41.7893 41.0391 41.4142 41.4142C41.0392 41.7893 40.5304 42 40 42H28C27.4696 42 26.9609 41.7893 26.5858 41.4142C26.2107 41.0391 26 40.5304 26 40C26 39.4696 26.2107 38.9609 26.5858 38.5858C26.9609 38.2107 27.4696 38 28 38H35.1725L22.585 25.415C22.2097 25.0397 21.9989 24.5307 21.9989 24C21.9989 23.4693 22.2097 22.9603 22.585 22.585C22.9603 22.2097 23.4693 21.9989 24 21.9989C24.5307 21.9989 25.0397 22.2097 25.415 22.585L38 35.1725V28C38 27.4696 38.2107 26.9609 38.5858 26.5858C38.9609 26.2107 39.4696 26 40 26C40.5304 26 41.0392 26.2107 41.4142 26.5858C41.7893 26.9609 42 27.4696 42 28V40Z" fill="#2B2D42"/>
</g>
</svg>
