<svg width="27" height="15" viewBox="0 0 27 15" fill="none" xmlns="http://www.w3.org/2000/svg">
<g id="Group 1">
<g id="Group">
<g id="Group_2">
<g id="Group_3">
<path id="Vector" d="M1.87521 5.17969H0.396705C0.328785 5.17969 0.272461 5.23601 0.272461 5.28157V8.82501H1.99945V6.82716C3.96251 6.72611 5.41865 7.54943 5.41865 9.69388C5.41865 12.4811 3.09363 12.5946 1.99945 12.549V10.5628H0.272461V14.1062C0.272461 14.1518 0.328785 14.2081 0.396705 14.2081H1.87521C4.12071 14.2081 7.1564 13.5537 7.1564 9.69388C7.1564 5.68743 4.07598 5.17969 1.87521 5.17969Z" fill="#2B2D42"/>
</g>
</g>
</g>
<g id="Group_4">
<g id="Group_5">
<g id="Group_6">
<path id="Vector_2" d="M11.1886 12.6604H10.2857V5.17847H8.55872V12.6604H7.63352C7.5656 12.6604 7.50928 12.706 7.50928 12.7623V14.105C7.50928 14.1505 7.5656 14.2069 7.63352 14.2069H11.1886C11.2672 14.2069 11.3128 14.1505 11.3128 14.105V12.7623C11.3128 12.706 11.2672 12.6604 11.1886 12.6604Z" fill="#2B2D42"/>
</g>
</g>
</g>
<g id="Group_7">
<g id="Group_8">
<g id="Group_9">
<path id="Vector_3" d="M18.3864 6.83851V5.28132C18.3864 5.23577 18.3417 5.17944 18.2621 5.17944H16.7952C14.5497 5.17944 11.5024 5.83379 11.5024 9.69364C11.5024 13.7001 14.5837 14.2078 16.7952 14.2078H18.2621C18.3417 14.2078 18.3864 14.1515 18.3864 14.106V8.57627H14.9216V10.3033H16.6594V12.5604C14.6963 12.6614 13.2402 11.8381 13.2402 9.69364C13.2402 6.90643 15.5652 6.79379 16.6594 6.83851H18.3864Z" fill="#2B2D42"/>
</g>
</g>
</g>
<g id="Group_10">
<g id="Group_11">
<g id="Group_12">
<path id="Vector_4" d="M22.4146 12.6614H21.5118V5.17944H19.7848V12.6614H18.8596C18.7917 12.6614 18.7354 12.707 18.7354 12.7633V14.106C18.7354 14.1515 18.7917 14.2078 18.8596 14.2078H22.4146C22.4933 14.2078 22.5389 14.1515 22.5389 14.106V12.7633C22.5389 12.707 22.4933 12.6614 22.4146 12.6614Z" fill="#2B2D42"/>
</g>
</g>
</g>
<g id="Group_13">
<g id="Group_14">
<g id="Group_15">
<path id="Vector_5" d="M15.5633 3.5279L14.4932 1.98728L15.3281 1.40747L15.8748 1.50687L16.4943 2.39811L16.3982 2.9481L15.5633 3.5279ZM15.6395 3.2264L16.1994 2.83545L16.2591 2.46769L15.7323 1.70566L15.3612 1.63277L14.8013 2.02372L15.6395 3.2264Z" fill="#2B2D42"/>
</g>
</g>
</g>
<g id="Group_16">
<g id="Group_17">
<g id="Group_18">
<path id="Vector_6" d="M17.1349 2.57133L17.0653 2.36923L17.284 2.29634L16.8102 0.927996L16.5915 1.00089L16.522 0.798782L17.1747 0.573486L17.2442 0.77559L17.0289 0.851793L17.5027 2.22013L17.718 2.14393L17.7876 2.34603L17.1349 2.57133Z" fill="#2B2D42"/>
</g>
</g>
</g>
<g id="Group_19">
<g id="Group_20">
<g id="Group_21">
<path id="Vector_7" d="M18.4707 2.19693L18.1924 1.94181L18.1162 0.606603L18.3713 0.32167L19.2593 0.271973L19.5309 0.517147L19.3918 0.67618L19.1764 0.484016L18.484 0.523774L18.3548 0.669553L18.421 1.85236L18.5668 1.98488L19.1267 1.95175L19.405 1.66351L19.3885 1.35869L18.9578 1.38189L18.9445 1.17978L19.5674 1.14665L19.6237 2.13066L19.4315 2.1406L19.4183 1.92525L19.1996 2.15385L18.4707 2.19693Z" fill="#2B2D42"/>
</g>
</g>
</g>
<g id="Group_22">
<g id="Group_23">
<g id="Group_24">
<path id="Vector_8" d="M20.1084 2.21207L20.1548 2.00334L20.3768 2.05303L20.6915 0.63831L20.4695 0.588613L20.5159 0.379883L21.1885 0.528976L21.1421 0.737705L20.9201 0.691321L20.6054 2.10605L20.8274 2.15243L20.781 2.36116L20.1084 2.21207Z" fill="#2B2D42"/>
</g>
</g>
</g>
<g id="Group_25">
<g id="Group_26">
<g id="Group_27">
<path id="Vector_9" d="M22.2896 3.0712L23.2371 1.70286L22.7799 1.38811L22.8992 1.21582L24.0058 1.98116L23.8865 2.15345L23.4293 1.83538L22.4817 3.20372L22.2896 3.0712Z" fill="#2B2D42"/>
</g>
</g>
</g>
<g id="Group_28">
<g id="Group_29">
<g id="Group_30">
<path id="Vector_10" d="M23.1953 3.77673L24.6597 2.60718L25.4317 3.57462L25.266 3.70715L24.6399 2.92193L24.1926 3.27975L24.7525 3.98214L24.5902 4.11136L24.0302 3.40897L23.5101 3.82311L24.1363 4.60833L23.9673 4.74417L23.1953 3.77673Z" fill="#2B2D42"/>
</g>
</g>
</g>
<g id="Group_31">
<g id="Group_32">
<g id="Group_33">
<path id="Vector_11" d="M24.1113 4.95735L25.2113 5.13957L25.8607 4.28809L25.9568 4.53326L25.3902 5.25553L25.4134 5.31517L26.3179 5.4742L26.414 5.71938L25.3604 5.52721L24.6646 6.39526L24.5719 6.15009L25.1682 5.40794L25.145 5.35161L24.2074 5.20915L24.1113 4.95735Z" fill="#2B2D42"/>
</g>
</g>
</g>
<g id="Group_34">
<g id="Group_35">
<g id="Group_36">
<path id="Vector_12" d="M24.7314 7.12106L26.3913 6.99516L26.3483 6.44186L26.557 6.42529L26.6597 7.76713L26.451 7.78369L26.4079 7.22708L24.748 7.35298L24.7314 7.12106Z" fill="#2B2D42"/>
</g>
</g>
</g>
<g id="Group_37">
<g id="Group_38">
<g id="Group_39">
<path id="Vector_13" d="M24.7346 8.23926L24.9467 8.2757L24.9069 8.501L26.3349 8.74286L26.3746 8.51756L26.5834 8.55401L26.4674 9.23321L26.2587 9.19676L26.2984 8.97147L24.8705 8.72961L24.8307 8.9549L24.6187 8.91846L24.7346 8.23926Z" fill="#2B2D42"/>
</g>
</g>
</g>
<g id="Group_40">
<g id="Group_41">
<g id="Group_42">
<path id="Vector_14" d="M24.49 9.41919L26.2062 10.1713L26.1135 10.3833L24.596 9.71737L24.2183 10.5821L24.0195 10.496L24.49 9.41919Z" fill="#2B2D42"/>
</g>
</g>
</g>
<g id="Group_43">
<g id="Group_44">
<g id="Group_45">
<path id="Vector_15" d="M23.8213 10.7837L25.2493 11.9996L24.4475 12.9406L24.2852 12.8014L24.9345 12.0361L24.5005 11.665L23.9207 12.3508L23.7617 12.215L24.3415 11.5292L23.8346 11.0984L23.1852 11.8638L23.0195 11.7246L23.8213 10.7837Z" fill="#2B2D42"/>
</g>
</g>
</g>
</g>
</svg>
