<svg width="16" height="17" viewBox="0 0 16 17" fill="none" xmlns="http://www.w3.org/2000/svg">
<path id="Vector" d="M11.1135 1.62454C11.6503 1.10389 12.3784 0.811352 13.1376 0.811279C13.8968 0.811207 14.6249 1.10361 15.1618 1.62416C15.6987 2.1447 16.0004 2.85076 16.0005 3.587C16.0006 4.32324 15.699 5.02936 15.1622 5.55001L15.1449 5.56685C14.757 5.9434 14.1401 5.94354 13.7521 5.56717L11.1138 3.00821C10.7235 2.62962 10.7233 2.00331 11.1135 1.62454ZM9.55189 3.13887C9.55233 3.1393 9.55233 3.14 9.55189 3.14042L1.55276 10.8967C1.2278 11.2119 0.999331 11.6082 0.892765 12.0418L0.0167726 15.6119C-0.0069459 15.7086 -0.00472212 15.8096 0.023232 15.9052C0.0511861 16.0009 0.103938 16.088 0.176458 16.1582C0.248977 16.2285 0.338845 16.2795 0.437492 16.3065C0.536138 16.3335 0.640274 16.3356 0.739967 16.3125L4.42074 15.4622C4.86808 15.359 5.27712 15.1374 5.60233 14.8222L6.11876 14.3214C6.36979 14.0779 6.4676 13.7217 6.42912 13.3742C6.35684 12.7215 6.41649 12.0596 6.60679 11.4259C6.85134 10.6115 7.30376 9.87017 7.92219 9.27038C8.54062 8.67059 9.30507 8.23176 10.1448 7.9945C10.8509 7.79502 11.5909 7.74345 12.3162 7.84135C12.574 7.87615 12.8384 7.80423 13.025 7.62306C13.3401 7.31727 13.3399 6.81155 13.0247 6.50593L9.55189 3.13887ZM9.0231 10.1023C9.08292 10.3029 9.10035 10.5132 9.07437 10.7205C9.04838 10.9278 8.9795 11.1279 8.87185 11.3088C8.76421 11.4897 8.62002 11.6476 8.44792 11.7732C8.27583 11.8987 8.07936 11.9893 7.87031 12.0394C7.58741 12.1071 7.36727 12.3381 7.35318 12.6287C7.34535 12.7899 7.34659 12.9514 7.3569 13.1125C7.37405 13.3807 7.57825 13.5928 7.83991 13.6538C8.05077 13.7031 8.2491 13.7934 8.42286 13.9193C8.59661 14.0452 8.74216 14.204 8.85065 14.3861C8.95915 14.5683 9.02832 14.7699 9.05398 14.9787C9.07964 15.1876 9.06124 15.3993 8.9999 15.6011C8.90908 15.8987 9.00022 16.2275 9.25959 16.3995C9.3473 16.4576 9.43725 16.5126 9.52931 16.5642C9.82737 16.7314 10.1938 16.6476 10.4327 16.4032C10.5822 16.2508 10.7621 16.1295 10.9615 16.0466C11.1609 15.9637 11.3755 15.921 11.5924 15.9211C11.8094 15.9212 12.024 15.964 12.2233 16.047C12.4226 16.13 12.6025 16.2515 12.7519 16.404C12.9938 16.6508 13.3643 16.7358 13.6661 16.5673C13.7423 16.5248 13.8171 16.4799 13.8905 16.4328C14.1744 16.2506 14.2745 15.8941 14.1783 15.5708C14.1186 15.3702 14.1013 15.1599 14.1274 14.9527C14.1535 14.7454 14.2224 14.5454 14.3301 14.3646C14.4379 14.1838 14.5821 14.0259 14.7542 13.9005C14.9263 13.775 15.1228 13.6845 15.3318 13.6344C15.6143 13.5668 15.834 13.3361 15.8482 13.046C15.856 12.8843 15.8548 12.7222 15.8445 12.5606C15.8273 12.2924 15.6231 12.0803 15.3614 12.0193C15.1507 11.9699 14.9524 11.8795 14.7787 11.7536C14.6051 11.6277 14.4596 11.4689 14.3512 11.2867C14.2428 11.1046 14.1737 10.903 14.1481 10.6942C14.1225 10.4854 14.1409 10.2737 14.2023 10.072C14.2926 9.77518 14.2021 9.44732 13.9435 9.27568C13.8553 9.21708 13.7648 9.16175 13.6722 9.10982C13.3745 8.94283 13.0083 9.02604 12.7695 9.26989C12.62 9.42247 12.4401 9.54396 12.2407 9.62698C12.0412 9.71 11.8265 9.75282 11.6095 9.75282C11.3925 9.75282 11.1777 9.71 10.9783 9.62698C10.7789 9.54396 10.599 9.42247 10.4495 9.26989C10.208 9.023 9.83796 8.93755 9.53632 9.10576C9.45977 9.14844 9.38468 9.19343 9.31115 9.24063C9.02731 9.42279 8.92689 9.77906 9.0231 10.1023ZM11.6007 14.0006C10.9607 14.0006 10.4407 13.4793 10.4407 12.8369C10.4407 12.1938 10.9607 11.6733 11.6007 11.6733C12.2407 11.6733 12.7607 12.1938 12.7607 12.8369C12.7607 13.4793 12.2407 14.0006 11.6007 14.0006Z" fill="#2B2D42"/>
</svg>
