<svg width="16" height="17" viewBox="0 0 16 17" fill="none" xmlns="http://www.w3.org/2000/svg">
<path id="Vector" d="M11.113 1.70072C11.6498 1.18006 12.3779 0.887524 13.1371 0.887451C13.8963 0.887378 14.6245 1.17978 15.1614 1.70033C15.6983 2.22088 15.9999 2.92693 16 3.66317C16.0001 4.39941 15.6986 5.10553 15.1618 5.62618L15.1444 5.64303C14.7565 6.01957 14.1396 6.01972 13.7516 5.64335L11.1133 3.08438C10.723 2.7058 10.7228 2.07948 11.113 1.70072ZM9.5514 3.21504C9.55184 3.21547 9.55184 3.21617 9.5514 3.2166L1.55227 10.9729C1.22731 11.288 0.998842 11.6844 0.892277 12.1179L0.0162843 15.6881C-0.00743419 15.7848 -0.00521041 15.8858 0.0227437 15.9814C0.0506978 16.077 0.10345 16.1641 0.175969 16.2344C0.248489 16.3046 0.338357 16.3557 0.437004 16.3827C0.53565 16.4097 0.639785 16.4117 0.739478 16.3886L4.42025 15.5384C4.86759 15.4352 5.27663 15.2136 5.60184 14.8983L6.11827 14.3975C6.3693 14.1541 6.46711 13.7979 6.42863 13.4504C6.35636 12.7977 6.416 12.1358 6.6063 11.5021C6.85085 10.6877 7.30327 9.94634 7.9217 9.34655C8.54013 8.74676 9.30458 8.30793 10.1443 8.07067C10.8504 7.87119 11.5905 7.81962 12.3157 7.91753C12.5735 7.95232 12.8379 7.8804 13.0245 7.69923C13.3396 7.39344 13.3394 6.88772 13.0242 6.58211L9.5514 3.21504ZM9.02261 10.1785C9.08243 10.3791 9.09987 10.5894 9.07388 10.7967C9.04789 11.004 8.97901 11.2041 8.87137 11.385C8.76372 11.5659 8.61953 11.7238 8.44744 11.8493C8.27534 11.9749 8.07887 12.0655 7.86982 12.1156C7.58692 12.1833 7.36679 12.4143 7.35269 12.7048C7.34486 12.8661 7.34611 13.0276 7.35641 13.1887C7.37356 13.4568 7.57776 13.6689 7.83942 13.73C8.05028 13.7793 8.24862 13.8696 8.42237 13.9955C8.59612 14.1214 8.74167 14.2802 8.85017 14.4623C8.95866 14.6444 9.02784 14.8461 9.05349 15.0549C9.07915 15.2638 9.06075 15.4755 8.99941 15.6772C8.90859 15.9749 8.99973 16.3037 9.25911 16.4756C9.34681 16.5338 9.43676 16.5888 9.52883 16.6404C9.82688 16.8075 10.1933 16.7237 10.4322 16.4794C10.5817 16.327 10.7616 16.2057 10.961 16.1228C11.1604 16.0399 11.375 15.9972 11.592 15.9973C11.8089 15.9973 12.0235 16.0402 12.2228 16.1232C12.4221 16.2062 12.602 16.3277 12.7514 16.4802C12.9933 16.727 13.3638 16.812 13.6656 16.6435C13.7418 16.6009 13.8166 16.5561 13.89 16.509C14.1739 16.3267 14.274 15.9703 14.1778 15.647C14.1181 15.4463 14.1008 15.2361 14.1269 15.0288C14.153 14.8216 14.2219 14.6215 14.3297 14.4407C14.4374 14.2599 14.5816 14.1021 14.7537 13.9766C14.9259 13.8512 15.1223 13.7607 15.3314 13.7106C15.6138 13.643 15.8335 13.4122 15.8477 13.1222C15.8556 12.9604 15.8543 12.7984 15.844 12.6368C15.8268 12.3686 15.6226 12.1565 15.361 12.0954C15.1502 12.0461 14.9519 11.9557 14.7783 11.8298C14.6046 11.7039 14.4591 11.545 14.3507 11.3629C14.2423 11.1808 14.1732 10.9792 14.1476 10.7704C14.122 10.5616 14.1404 10.3499 14.2018 10.1482C14.2921 9.85135 14.2016 9.52349 13.9431 9.35185C13.8548 9.29325 13.7643 9.23792 13.6717 9.18599C13.374 9.01901 13.0078 9.10221 12.769 9.34606C12.6195 9.49864 12.4396 9.62013 12.2402 9.70315C12.0408 9.78617 11.826 9.82899 11.609 9.82899C11.392 9.82899 11.1772 9.78617 10.9778 9.70315C10.7784 9.62013 10.5985 9.49864 10.449 9.34606C10.2075 9.09917 9.83747 9.01372 9.53583 9.18193C9.45928 9.22462 9.38419 9.2696 9.31066 9.3168C9.02682 9.49896 8.9264 9.85523 9.02261 10.1785ZM11.6002 14.0768C10.9602 14.0768 10.4402 13.5555 10.4402 12.9131C10.4402 12.27 10.9602 11.7494 11.6002 11.7494C12.2402 11.7494 12.7602 12.27 12.7602 12.9131C12.7602 13.5555 12.2402 14.0768 11.6002 14.0768Z" fill="white"/>
</svg>
