<svg width="52" height="28" viewBox="0 0 52 28" fill="none" xmlns="http://www.w3.org/2000/svg">
<g id="Group 1">
<g id="Group">
<g id="Group_2">
<g id="Group_3">
<path id="Vector" d="M3.58275 9.99951H0.711948C0.580067 9.99951 0.470703 10.1089 0.470703 10.1973V17.0776H3.824V13.1984C7.63566 13.0022 10.463 14.6008 10.463 18.7647C10.463 24.1766 5.94856 24.397 3.824 24.3085V20.4518H0.470703V27.3321C0.470703 27.4206 0.580067 27.5299 0.711948 27.5299H3.58275C7.94284 27.5299 13.8372 26.2594 13.8372 18.7647C13.8372 10.9854 7.85599 9.99951 3.58275 9.99951Z" fill="#9F9898"/>
</g>
</g>
</g>
<g id="Group_4">
<g id="Group_5">
<g id="Group_6">
<path id="Vector_2" d="M21.6597 24.5272H19.9066V9.99951H16.5533V24.5272H14.7569C14.625 24.5272 14.5156 24.6157 14.5156 24.7251V27.3321C14.5156 27.4206 14.625 27.5299 14.7569 27.5299H21.6597C21.8125 27.5299 21.9009 27.4206 21.9009 27.3321V24.7251C21.9009 24.6157 21.8125 24.5272 21.6597 24.5272Z" fill="#9F9898"/>
</g>
</g>
</g>
<g id="Group_7">
<g id="Group_8">
<g id="Group_9">
<path id="Vector_3" d="M35.638 13.2209V10.1973C35.638 10.1089 35.5512 9.99951 35.3968 9.99951H32.5485C28.1884 9.99951 22.2715 11.2701 22.2715 18.7647C22.2715 26.544 28.2543 27.5299 32.5485 27.5299H35.3968C35.5512 27.5299 35.638 27.4206 35.638 27.3321V16.5951H28.9105V19.9484H32.2847V24.331C28.4731 24.5272 25.6457 22.9286 25.6457 18.7647C25.6457 13.3528 30.1602 13.1341 32.2847 13.2209H35.638Z" fill="#9F9898"/>
</g>
</g>
</g>
<g id="Group_10">
<g id="Group_11">
<g id="Group_12">
<path id="Vector_4" d="M43.4604 24.5272H41.7074V9.99951H38.3541V24.5272H36.5577C36.4258 24.5272 36.3164 24.6157 36.3164 24.7251V27.3321C36.3164 27.4206 36.4258 27.5299 36.5577 27.5299H43.4604C43.6132 27.5299 43.7017 27.4206 43.7017 27.3321V24.7251C43.7017 24.6157 43.6132 24.5272 43.4604 24.5272Z" fill="#9F9898"/>
</g>
</g>
</g>
<g id="Group_13">
<g id="Group_14">
<g id="Group_15">
<path id="Vector_5" d="M30.1541 6.79204L28.0762 3.80061L29.6973 2.6748L30.7588 2.8678L31.9618 4.59833L31.7752 5.66623L30.1541 6.79204ZM30.3021 6.20662L31.3893 5.4475L31.5051 4.73342L30.4822 3.25379L29.7617 3.11226L28.6745 3.87138L30.3021 6.20662Z" fill="#9F9898"/>
</g>
</g>
</g>
<g id="Group_16">
<g id="Group_17">
<g id="Group_18">
<path id="Vector_6" d="M33.2019 4.93682L33.0668 4.5444L33.4913 4.40287L32.5714 1.74597L32.1468 1.8875L32.0117 1.49507L33.2791 1.05762L33.4142 1.45004L32.996 1.598L33.9159 4.25491L34.3341 4.10694L34.4692 4.49937L33.2019 4.93682Z" fill="#9F9898"/>
</g>
</g>
</g>
<g id="Group_19">
<g id="Group_20">
<g id="Group_21">
<path id="Vector_7" d="M35.8036 4.20789L35.2632 3.71254L35.1152 1.11997L35.6106 0.566713L37.3347 0.470215L37.8622 0.94627L37.592 1.25506L37.1739 0.881938L35.8293 0.959136L35.5784 1.2422L35.7071 3.53884L35.9901 3.79617L37.0774 3.73184L37.6177 3.17215L37.5856 2.5803L36.7493 2.62533L36.7235 2.23291L37.933 2.16857L38.0423 4.07923L37.6692 4.09853L37.6435 3.68037L37.2189 4.12426L35.8036 4.20789Z" fill="#9F9898"/>
</g>
</g>
</g>
<g id="Group_22">
<g id="Group_23">
<g id="Group_24">
<path id="Vector_8" d="M38.9883 4.24065L39.0783 3.83536L39.5094 3.93186L40.1205 1.18489L39.6895 1.0884L39.7796 0.683105L41.0855 0.972598L40.9954 1.37789L40.5644 1.28782L39.9533 4.03479L40.3843 4.12486L40.2942 4.53015L38.9883 4.24065Z" fill="#9F9898"/>
</g>
</g>
</g>
<g id="Group_25">
<g id="Group_26">
<g id="Group_27">
<path id="Vector_9" d="M43.2207 5.90483L45.0606 3.24792L44.1728 2.63677L44.4044 2.30225L46.5531 3.78831L46.3215 4.12284L45.4337 3.50525L43.5938 6.16215L43.2207 5.90483Z" fill="#9F9898"/>
</g>
</g>
</g>
<g id="Group_28">
<g id="Group_29">
<g id="Group_30">
<path id="Vector_10" d="M44.9746 7.27433L47.8181 5.00342L49.317 6.88191L48.9953 7.13923L47.7795 5.61457L46.911 6.30935L47.9982 7.67319L47.683 7.92408L46.5958 6.56025L45.5858 7.36439L46.8016 8.88906L46.4735 9.15282L44.9746 7.27433Z" fill="#9F9898"/>
</g>
</g>
</g>
<g id="Group_31">
<g id="Group_32">
<g id="Group_33">
<path id="Vector_11" d="M46.752 9.56903L48.8878 9.92286L50.1487 8.26953L50.3352 8.74559L49.2352 10.148L49.2802 10.2638L51.0364 10.5726L51.223 11.0487L49.1773 10.6755L47.8263 12.361L47.6462 11.885L48.8041 10.4439L48.7591 10.3346L46.9385 10.058L46.752 9.56903Z" fill="#9F9898"/>
</g>
</g>
</g>
<g id="Group_34">
<g id="Group_35">
<g id="Group_36">
<path id="Vector_12" d="M47.959 13.7689L51.182 13.5245L51.0984 12.4501L51.5037 12.418L51.7031 15.0234L51.2978 15.0556L51.2142 13.9748L47.9912 14.2193L47.959 13.7689Z" fill="#9F9898"/>
</g>
</g>
</g>
<g id="Group_37">
<g id="Group_38">
<g id="Group_39">
<path id="Vector_13" d="M47.9673 15.9395L48.3791 16.0102L48.3019 16.4477L51.0746 16.9173L51.1518 16.4798L51.5571 16.5506L51.3319 17.8694L50.9266 17.7986L51.0038 17.3612L48.2311 16.8916L48.1539 17.329L47.7422 17.2583L47.9673 15.9395Z" fill="#9F9898"/>
</g>
</g>
</g>
<g id="Group_40">
<g id="Group_41">
<g id="Group_42">
<path id="Vector_14" d="M47.4877 18.23L50.8201 19.6903L50.64 20.102L47.6936 18.809L46.9602 20.488L46.5742 20.3208L47.4877 18.23Z" fill="#9F9898"/>
</g>
</g>
</g>
<g id="Group_43">
<g id="Group_44">
<g id="Group_45">
<path id="Vector_15" d="M46.1877 20.8818L48.9604 23.2428L47.4036 25.0698L47.0883 24.7996L48.3492 23.3136L47.5065 22.5931L46.3807 23.9247L46.0719 23.661L47.1977 22.3293L46.2134 21.493L44.9525 22.9791L44.6309 22.7089L46.1877 20.8818Z" fill="#9F9898"/>
</g>
</g>
</g>
</g>
</svg>
